<svg xmlns="http://www.w3.org/2000/svg" width="41.032" height="36.656" viewBox="0 0 41.032 36.656">
  <defs>
    <style>
      .cls-1 {
        fill: #5bc4ad;
        fill-rule: evenodd;
      }
    </style>
  </defs>
  <path id="pizza_2" data-name="pizza 2" class="cls-1" d="M281.545,59.561L262.727,30.313l2.084-4.866a26.908,26.908,0,0,1,18.28,12.2,28.071,28.071,0,0,1,3.674,21.918ZM278.222,40.89a22.233,22.233,0,0,1-6.5,30.421,21.438,21.438,0,0,1-30.019-6.139,22.234,22.234,0,0,1,6.5-30.421A21.437,21.437,0,0,1,278.222,40.89Zm-2.434,1.619c3.136,4.875,5.406,13.805.537,17.043-1.217.809-29.751,2.382-29.751,2.382s12.852-25.946,14.07-26.755C265.513,31.941,271.868,36.415,275.788,42.509Zm-1.2,3.534,0.673,1.044a3.813,3.813,0,0,1-1.114,5.215L273.1,53a3.675,3.675,0,0,1-5.146-1.052L267.282,50.9a3.812,3.812,0,0,1,1.114-5.215l1.043-.694A3.675,3.675,0,0,1,274.585,46.043ZM265.926,56.9a5.187,5.187,0,0,1-1.516,7.1,5,5,0,0,1-7-1.432,5.188,5.188,0,0,1,1.516-7.1A5,5,0,0,1,265.926,56.9Zm-3.012-12.787a2.964,2.964,0,0,1-.867,4.056,2.858,2.858,0,0,1-4-.819,2.965,2.965,0,0,1,.866-4.056A2.859,2.859,0,0,1,262.914,44.109Zm13.041,14.279,0.08,1.345-27.6,2.354-0.079-1.346Z" transform="translate(-246.562 -25.438)"/>
</svg>
